<?xml version="1.0" encoding="UTF-8"?>
<svg width="200px" height="75px" viewBox="0 0 200 75" version="1.1" xmlns="http://www.w3.org/2000/svg" xmlns:xlink="http://www.w3.org/1999/xlink">
    <!-- Generator: Sketch 48.2 (47327) - http://www.bohemiancoding.com/sketch -->
    <title>jokedewinter</title>
    <desc>Created with Sketch.</desc>
    <defs></defs>
    <g id="Page-1" stroke="none" stroke-width="1" fill="none" fill-rule="evenodd">
        <g id="jokedewinter" fill="#57575F">
            <g transform="translate(2.000000, 1.000000)">
                <path d="M13.191,0.297 C13.191,0.297 11.955,0.596 12.442,2.207 C12.442,2.207 13.491,4.005 15.176,2.919 C15.176,2.919 16.412,2.469 15.438,1.458 C15.438,1.458 15.214,-0.79 13.191,0.297" id="Fill-1"></path>
                <path d="M54.207,43.934 C54.207,43.934 53.233,44.421 52.221,43.597 C52.221,43.597 50.686,42.361 50.087,40.113 C50.087,40.114 54.544,33.821 54.357,29.213 C54.357,29.213 54.357,25.281 50.986,27.041 C50.986,27.041 47.614,29.213 46.678,33.184 C46.678,33.184 45.929,37.042 47.24,39.963 C47.24,39.963 43.906,45.058 41.471,43.597 C41.471,43.597 39.336,42.061 40.123,36.93 C40.123,36.93 42.033,34.607 41.284,32.322 C41.284,32.322 39.823,30.374 38.475,33.034 C38.475,33.034 34.879,41.125 33.456,42.398 C33.456,42.398 32.481,32.135 32.706,24.194 C32.706,24.194 35.216,19.624 34.916,16.628 L34.392,12.507 C34.392,12.507 33.568,9.136 31.583,12.17 L30.684,23.333 C30.684,23.333 27.125,29.738 22.556,28.502 C22.556,28.502 21.45,23.894 19.316,27.191 C19.316,27.191 18.435,29.962 18.061,30.412 L14.858,34.345 C14.858,34.345 14.453,35.057 14.159,34.57 L13.116,14.38 C11.655,12.358 10.644,14.118 10.644,14.118 C10.344,15.542 11.243,16.441 11.243,16.441 L11.693,22.396 L12.33,36.293 L9.221,39.102 C-1.492,48.878 0.081,56.22 0.081,56.22 C0.493,68.693 8.959,72.626 8.959,72.626 C15.251,75.099 15.551,64.498 15.551,64.498 C15.926,62.288 14.298,37.269 14.298,37.269 L17.087,34.757 L16.937,45.02 C16.937,45.02 17.237,48.803 20.345,49.29 C20.345,49.29 23.679,50.077 25.402,47.155 C25.402,47.155 28.099,43.41 27.949,39.252 C27.949,39.252 27.35,34.308 25.44,31.311 C25.44,31.311 29.785,29.101 30.384,27.865 L30.833,42.174 C30.833,42.174 31.133,44.795 31.433,45.133 C31.433,45.133 33.006,47.268 34.767,44.945 C34.767,44.945 36.377,43.185 37.164,41.275 C37.164,41.275 38.55,45.695 40.498,46.406 C40.498,46.406 44.356,48.654 48.176,42.96 C48.176,42.96 50.087,47.38 53.195,46.931 C53.195,46.931 55.893,47.23 57.728,42.174 L59.001,38.315 C59.001,38.315 58.44,37.978 57.391,39.364 C57.391,39.364 54.694,43.672 54.207,43.934 Z M12.742,67.083 C11.805,71.802 8.734,69.967 8.734,69.967 C1.355,66.146 1.467,55.059 1.467,55.059 C1.467,47.83 12.292,39.102 12.292,39.102 C12.929,41.012 13.528,51.912 13.528,51.912 C14.24,57.718 12.742,67.083 12.742,67.083 L12.742,67.083 Z M25.789,38.803 C25.939,42.598 22.868,46.144 22.868,46.144 C21.545,48.067 20.046,46.419 20.046,46.419 C19.072,45.22 19.147,40.801 19.147,40.801 C19.122,37.154 20.87,31.361 20.87,31.361 C22.868,30.863 23.442,31.811 23.442,31.811 C25.139,33.335 25.789,38.803 25.789,38.803 L25.789,38.803 Z M49.739,37.078 C49.739,37.078 49.214,38.277 49.19,37.403 C49.19,37.403 49.639,32.409 50.263,31.36 C50.263,31.36 52.185,28.414 52.061,30.911 C52.061,30.911 52.012,33.458 51.188,34.731 L49.739,37.078 L49.739,37.078 Z" id="Fill-2"></path>
                <path d="M102.078,40.044 C102.078,40.044 96.11,44.388 94.062,45.937 C94.062,45.937 90.59,47.559 89.118,45.337 C89.118,45.337 88.019,43.84 88.219,42.666 C88.219,42.666 91.789,34.7 93.988,31.154 C93.988,31.154 95.261,27.234 92.938,26.485 C92.938,26.485 91.142,25.436 88.844,29.706 C88.844,29.706 86.372,34.501 86.222,36.023 C86.222,36.023 84.774,40.368 85.473,42.916 C85.473,42.916 84.198,46.288 83.05,42.891 C83.05,42.891 82.152,41.143 82.252,38.471 C82.252,38.471 82.301,32.129 82.376,31.429 C82.376,31.429 83.2,32.128 83.848,31.654 C83.848,31.654 85.073,30.781 82.625,28.582 C82.625,28.582 82.451,21.24 82.55,21.065 C82.55,21.065 83.424,17.518 81.252,17.395 C81.252,17.395 79.555,17.194 79.454,19.117 C79.454,19.117 79.48,20.018 80.029,20.117 C80.029,20.117 80.405,25.612 80.154,26.435 C80.154,26.435 77.207,25.136 73.961,28.283 C73.961,28.283 70.764,31.955 71.363,40.295 C71.363,40.295 71.388,45.287 72.787,46.686 C72.787,46.686 74.858,49.284 77.132,46.262 C79.405,43.24 80.029,41.492 80.029,41.492 C80.029,41.492 81.102,45.437 82.551,46.311 C82.551,46.311 84.174,48.06 86.022,45.163 C86.022,45.163 87.645,48.459 90.067,48.984 C90.067,48.984 92.613,49.959 95.261,47.985 C95.261,47.985 102.204,42.117 103.327,40.344 C103.327,40.344 103.727,39.046 102.078,40.044 L102.078,40.044 Z M79.529,36.849 C79.479,39.021 75.533,44.514 75.533,44.514 C74.359,46.137 73.585,42.368 73.585,42.368 C73.11,36.85 75.358,30.306 75.358,30.306 C76.357,28.184 79.853,29.058 79.853,29.058 C81.127,29.507 79.529,36.849 79.529,36.849 L79.529,36.849 Z M87.32,40.57 L87.245,40.094 C87.245,40.094 88.919,32.304 90.316,31.255 C90.316,31.255 91.74,30.381 91.44,31.805 C91.44,31.805 91.341,34.378 87.32,40.57 L87.32,40.57 Z" id="Fill-3"></path>
                <path d="M113.641,44.026 C113.99,45.623 114.789,46.223 114.789,46.223 C114.789,46.223 116.713,48.245 118.685,45.099 C118.685,45.099 120.433,41.978 120.383,41.104 C120.383,41.104 120.357,45.348 121.631,46.822 C121.631,46.822 123.056,49.169 125.876,47.271 C125.876,47.271 130.946,40.903 131.171,37.108 C131.171,37.108 133.368,45.4 133.967,46.273 C133.967,46.273 134.942,48.994 137.089,48.62 C137.089,48.62 138.188,48.245 137.464,47.221 C137.464,47.221 136.389,46.522 135.815,44 C135.815,44 133.694,34.161 133.519,33.038 C133.519,33.038 132.645,30.315 130.522,32.563 C130.522,32.563 129.174,36.383 128.3,38.506 C128.3,38.506 126.301,43.301 124.628,44.824 C124.628,44.824 123.179,46.397 123.08,43.101 L122.731,33.062 C122.731,33.062 122.082,29.067 119.984,32.388 C119.984,32.388 118.51,37.583 118.361,39.33 C118.361,39.33 117.787,41.552 116.888,43.026 C116.888,43.026 116.088,44.425 115.938,42.402 C115.938,42.402 115.339,36.459 115.663,33.787 C115.663,33.787 116.488,32.512 116.413,31.813 C116.413,31.813 116.388,29.416 114.24,29.641 C114.24,29.641 112.966,29.616 112.493,31.24 C112.493,31.24 112.492,32.64 113.216,32.564 C113.216,32.564 113.292,42.428 113.641,44.026 Z" id="Fill-4"></path>
                <path d="M131.396,20.252 C131.396,20.252 129.599,20.028 129.848,21.501 C129.848,21.501 130.072,23.248 132.145,23.173 C132.145,23.173 133.443,23.149 133.718,21.9 C133.718,21.9 135.141,21.625 134.317,20.776 C134.317,20.776 132.943,19.253 131.396,20.252" id="Fill-5"></path>
                <path d="M192.074,38.208 C192.074,38.208 191.025,42.428 189.077,45.199 C189.077,45.199 187.579,47.523 186.305,44.126 C186.305,44.126 184.608,39.78 184.633,35.935 L184.783,25.722 C184.783,25.722 185.207,21.602 179.538,23.699 C179.538,23.699 176.839,25.073 175.367,29.444 C175.367,29.444 174.218,34.963 174.144,36.087 C174.144,36.087 173.269,37.536 172.97,37.71 C172.97,37.71 172.672,37.785 172.845,36.087 C172.845,36.087 173.071,29.92 172.321,28.646 C172.321,28.646 170.846,25.275 167.876,29.12 C167.876,29.12 165.878,33.965 169.549,40.557 C169.549,40.557 169.649,42.754 167.476,43.803 C167.476,43.803 165.677,44.076 164.678,41.728 C164.678,41.728 163.605,39.909 163.605,35.463 C163.605,35.463 163.63,21.576 163.778,19.305 C163.778,19.305 163.68,18.18 164.602,17.532 C164.602,17.532 170.744,15.633 172.419,13.261 C172.419,13.261 172.743,12.363 170.47,13.137 C170.47,13.137 165.677,14.986 164.129,15.01 C164.129,15.01 164.878,9.316 164.153,8.417 C164.153,8.417 162.605,6.794 161.855,9.166 C161.855,9.166 161.482,9.79 162.256,10.789 C162.256,10.789 162.281,14.486 161.956,15.385 C161.956,15.385 160.582,15.933 159.458,15.509 C159.458,15.509 157.76,15.384 158.585,17.781 C158.585,17.781 159.011,19.155 161.383,18.88 C161.383,18.88 160.809,35.486 161.433,36.933 C161.433,36.933 159.534,40.28 158.386,40.904 C158.386,40.904 157.112,42.127 156.438,40.404 C156.438,40.404 154.042,34.711 153.641,34.461 C153.641,34.461 152.193,32.662 150.071,34.51 C150.071,34.51 148.672,37.458 148.297,39.031 C148.297,39.031 147.922,31.364 147.173,29.991 C147.173,29.991 146.949,27.445 144.802,27.469 C144.802,27.469 142.88,27.594 142.929,30.565 C142.929,30.565 142.53,34.062 141.805,35.81 C141.805,35.81 140.582,39.629 140.082,40.629 C140.082,40.629 138.644,43.228 138.738,45.55 C138.738,45.55 137.29,46.548 138.638,47.572 C138.638,47.572 140.411,48.896 141.46,47.098 C141.46,47.098 142.01,46.125 141.51,45.051 C141.51,45.051 142.359,41.53 142.584,40.631 C142.584,40.631 144.58,35.76 144.781,33.114 C144.781,33.114 145.256,31.391 145.406,33.389 C145.406,33.389 145.981,39.532 145.78,41.929 C145.78,41.929 145.131,42.779 145.655,43.328 C145.655,43.328 147.653,46.099 149.826,42.253 C149.826,42.253 150.692,40.479 151.074,38.807 C151.074,38.807 151.822,36.535 152.572,38.034 C152.572,38.034 154.465,42.102 155.244,42.828 C155.244,42.828 156.987,44.75 158.984,43.126 C158.984,43.127 161.456,41.679 161.711,39.732 C161.711,39.732 162.086,41.729 162.361,42.104 C162.361,42.104 165.327,48.121 168.423,46.148 C168.423,46.148 170.603,45.225 171.601,42.678 C171.601,42.678 173.647,43.75 175.02,40.23 C175.02,40.23 176.766,36.984 177.015,32.588 C177.015,32.588 177.764,27.344 180.514,26.046 C180.514,26.046 182.187,25.097 182.162,27.17 C182.162,27.17 182.708,37.632 182.883,38.857 C182.883,38.857 183.41,46.598 186.106,48.247 C186.106,48.247 188.104,49.92 190.152,47.872 C190.152,47.872 194.547,41.379 193.898,38.457 C193.898,38.457 193.422,35.137 192.074,38.208 Z M170.624,36.871 C170.624,36.871 169.069,32.657 169.519,32.058 C169.519,32.058 170.961,30.035 171.354,32.47 L170.624,36.871 L170.624,36.871 Z" id="Fill-6"></path>
            </g>
        </g>
    </g>
</svg>