<?xml version="1.0" encoding="UTF-8"?>
<svg width="300px" height="139px" viewBox="0 0 300 139" version="1.1" xmlns="http://www.w3.org/2000/svg" xmlns:xlink="http://www.w3.org/1999/xlink">
    <!-- Generator: Sketch 48.2 (47327) - http://www.bohemiancoding.com/sketch -->
    <title>winter-left-arm</title>
    <desc>Created with Sketch.</desc>
    <defs></defs>
    <g id="Page-1" stroke="none" stroke-width="1" fill="none" fill-rule="evenodd">
        <g id="winter-left-arm">
            <g id="liberty" transform="translate(64.000000, 2.000000)" stroke="#4A4A4A" stroke-width="4">
                <g id="arm" transform="translate(26.000000, 40.000000) scale(-1, 1) translate(-26.000000, -40.000000) ">
                    <path d="M0.524271845,80 C2.85436893,79.4822006 22.5307443,68.0906149 29.2621359,35.210356 C33.6634304,31.0679612 42.4012945,18.8996764 29.2621359,22.2653722 C24.0841424,28.9967638 26.6731392,41.1650485 34.4401294,35.210356 C38.0647249,31.8446602 42.7249191,19.6763754 30.038835,25.3721683 C29.2621359,27.4433657 24.3430421,39.6116505 31.0744337,35.210356" id="Path-2"></path>
                    <path d="M38.5988879,10.3559871 C44.2783172,-1.03559871 30.5566343,28.4789644 29.7799353,19.6763754 C29.0032362,10.8737864 25.1197411,-1.81229773 25.6375405,0.517799353 C26.1553398,2.84789644 31.8511327,28.2200647 37.8058252,22.7831715 C43.7605178,17.3462783 56.4466019,6.21359223 49.7152104,12.1682848" id="Path-3"></path>
                </g>
                <path d="M61.8640777,51.9320388 C53.7518878,54.3484358 50.5587918,57.8004315 52.2847896,62.2880259 C54.8737864,69.0194175 59.5339806,66.4304207 60.0517799,64.3592233 C60.5695793,62.2880259 65.7475728,48.0485437 59.0161812,50.8964401 C57.7625012,51.7594391 56.2954031,52.7950378 54.6148867,54.0032362 L44,33.0323625 L59.0161812,49.8298914 C57.9805825,39.8397373 57.4627832,32.4282632 57.4627832,27.5954693 C58.4983819,30.8748652 59.3613808,38.6418554 60.0517799,50.8964401 C64.5393743,46.7540453 68.2502697,43.4746494 71.184466,41.0582524 C70.407767,44.9417476 69.8899676,49.8608414 67.8187702,51.9320388 C71.184466,50.8964401 69.3721683,50.8964401 75.8446602,49.8608414 C73.5145631,52.7087379 71.4433657,58.6634304 69.3721683,60.9935275 C73.5145631,59.9579288 73.7734628,59.9579288 77.6569579,59.1812298" id="head"></path>
            </g>
            <path d="M0,108.976744 C14.3255814,102.093023 29.6744186,91.1162791 46.0465116,76.0465116 L48.8372093,78.8372093 C43.8139535,99.6744186 42.0465116,113.813953 43.5348837,121.255814 C45.0232558,128.697674 52.744186,118.55814 66.6976744,90.8372093 L71.1627907,92.7906977 C70.2325581,95.2504056 69.7674419,101.017847 69.7674419,110.093023 C69.7674419,123.705787 84,95.3023256 84,85.8139535 C92.9302326,90 112.465116,87.4883721 115.255814,85.8139535 C116.186047,87.8604651 117.023256,89.5348837 117.767442,90.8372093 C112.55814,100.883721 110.790698,110.27907 112.465116,119.023256 C114.139535,127.767442 121.488372,117.906977 134.511628,89.4418605 C137.302326,85.5348837 140.186047,85.0697674 143.162791,88.0465116 C138.976744,95.3023256 136.465116,114.898864 137.302326,113.427971 C137.860465,112.447376 143.627907,103.242703 154.604651,85.8139535 L159.348837,90.8372093 C159.348837,100.883721 160.372093,107.953488 162.418605,112.046512 C165.488372,118.186047 179.72093,96.4802596 184.744186,90.8372093 C188.093023,87.0751758 192.651163,75.4472688 198.418605,55.9534884 L205.674419,54 L196.744186,78.8372093 L215.44186,74.9302326 C216,78.2790698 216,80.5116279 215.44186,81.627907 C210.976744,82.744186 197.023256,88.0465116 193.953488,89.4418605 C190.883721,90.8372093 189.767442,105.906977 192.27907,113.427971 C196.744186,121.255814 200.930233,120.48026 205.674419,115.674419 C199.255814,101.73482 209.581395,84.4186047 218.511628,88.0465116 C229.953488,93.9069767 217.674419,111.984857 212.372093,116.790698 C225.767442,117.968632 236.093023,99.2093023 240.55814,93.9069767 C247.813953,95.6224986 254.697674,96.0876149 261.209302,95.3023256 C262.139535,96.6046512 262.604651,97.255814 262.604651,97.255814 C252.55814,113.72093 254.511628,125.72093 261.209302,131.302326 C265.674419,135.023256 275.813953,129.555435 291.627907,114.898864 L300,119.023256 C276.186047,136.883721 260.186047,142.744186 252,136.604651 C243.813953,130.465116 243.813953,118.651163 252,101.162791 L243.348837,101.162791 C236.651163,110.837209 229.767442,117.534884 222.697674,121.255814 C212.093023,126.837209 209.860465,122.372093 209.023256,121.255814 C206.790698,123.209302 203.162791,127.395349 198.418605,127.395349 C189.488372,127.395349 186.697674,108.418605 186.139535,101.162791 C180,111.488372 171.069767,121.255814 162.418605,121.255814 C153.767442,121.255814 152.372093,105.906977 152.372093,101.162791 C147.906977,102.465116 142.883721,110.27907 137.302326,124.604651 C134.325581,126.465116 132.465116,126.465116 131.72093,124.604651 C130.604651,121.813953 131.72093,113.72093 131.72093,105.906977 C129.860465,109.813953 125.209302,116.418605 117.767442,125.72093 C114.046512,128.697674 110.976744,128.325581 108.55814,124.604651 C104.930233,119.023256 108.55814,101.72093 109.953488,95.3023256 C103.255814,98.2790698 96.2790698,98.2790698 89.0232558,95.3023256 C86.7906977,106.465116 83.8139535,114 80.0930233,117.906977 C74.5116279,123.767442 71.4418605,124.046512 66.6976744,122.372093 C63.5348837,121.255814 61.8604651,117.813953 61.6744186,112.046512 L48.8372093,127.395349 C44,130.186047 40.5581395,128.139535 38.5116279,121.255814 C36.4651163,114.372093 36.4651163,104.232558 38.5116279,90.8372093 L3.06976744,119.023256 C2.3255814,115.529475 1.30232558,112.180638 0,108.976744 Z M210.139535,98.372093 C209.302326,100.883721 207.906977,107.023256 209.581395,111.209302 C212.981426,108.418605 216.27907,101.44186 217.395349,99.2093023 C218.232558,96.6976744 217.953488,93.3488372 215.72093,93.0697674 C213.488372,92.7906977 212.093023,95.0232558 210.139535,98.372093 Z" id="winter" fill="#4A4A4A"></path>
        </g>
    </g>
</svg>